<svg width="825" height="680" viewBox="0 0 825 680" fill="none" xmlns="http://www.w3.org/2000/svg">
<g filter="url(#filter0_d_1_971)">
<path d="M235.895 182.602L286.086 102.614L392.394 102.613" stroke="white" stroke-width="1.73888"/>
<path d="M265.219 138.215L286.085 102.616L335.643 102.616" stroke="white" stroke-width="3.47776"/>
<path d="M242.614 136.041L274.019 82.2195L350.859 82.2195" stroke="white" stroke-width="3.47776"/>
<path d="M254.096 51.668L254.597 71.7406L271.73 61.2705L254.096 51.668ZM260.773 65.9285L271.74 83.8746L274.707 82.0611L263.74 64.115L260.773 65.9285Z" fill="#06DAFF"/>
<ellipse cx="273.077" cy="82.9793" rx="6.60774" ry="6.60775" fill="white"/>
<ellipse cx="389.601" cy="102.619" rx="3.96463" ry="3.9647" fill="#06DAFF"/>
<ellipse cx="239.188" cy="182.608" rx="3.96463" ry="3.9647" fill="#06DAFF"/>
</g>
<g filter="url(#filter1_d_1_971)">
<path d="M606.776 182.602L556.585 102.614L450.277 102.613" stroke="white" stroke-width="1.73888"/>
<path d="M577.452 138.214L556.586 102.616L507.028 102.616" stroke="white" stroke-width="3.47776"/>
<path d="M600.057 136.041L568.652 82.2196L491.812 82.2195" stroke="white" stroke-width="3.47776"/>
<path d="M588.575 51.668L588.074 71.7406L570.941 61.2705L588.575 51.668ZM581.898 65.9285L570.931 83.8746L567.964 82.0611L578.931 64.115L581.898 65.9285Z" fill="#06DAFF"/>
<ellipse cx="6.60774" cy="6.60775" rx="6.60774" ry="6.60775" transform="matrix(-1 0 0 1 577.385 76.3716)" fill="white"/>
<ellipse cx="3.96463" cy="3.9647" rx="3.96463" ry="3.9647" transform="matrix(-1 0 0 1 457.035 98.6548)" fill="#06DAFF"/>
<ellipse cx="3.96463" cy="3.9647" rx="3.96463" ry="3.9647" transform="matrix(-1 0 0 1 607.448 178.643)" fill="#06DAFF"/>
</g>
<g filter="url(#filter2_d_1_971)">
<path d="M606.776 486.918L556.585 566.906L450.277 566.906" stroke="white" stroke-width="1.73888"/>
<path d="M577.452 531.305L556.586 566.904L507.028 566.904" stroke="white" stroke-width="3.47776"/>
<path d="M600.057 533.479L568.652 587.3L491.812 587.3" stroke="white" stroke-width="3.47776"/>
<path d="M588.575 617.852L588.074 597.779L570.941 608.25L588.575 617.852ZM581.898 603.592L570.931 585.645L567.964 587.459L578.931 605.405L581.898 603.592Z" fill="#06DAFF"/>
<ellipse cx="570.777" cy="586.079" rx="6.60774" ry="6.60775" transform="rotate(-180 570.777 586.079)" fill="white"/>
<ellipse cx="453.07" cy="566.9" rx="3.96463" ry="3.9647" transform="rotate(-180 453.07 566.9)" fill="#06DAFF"/>
<ellipse cx="603.483" cy="486.912" rx="3.96463" ry="3.9647" transform="rotate(-180 603.483 486.912)" fill="#06DAFF"/>
</g>
<g filter="url(#filter3_d_1_971)">
<path d="M232.028 480.832L282.219 560.82L388.528 560.821" stroke="white" stroke-width="1.73888"/>
<path d="M261.352 525.22L282.219 560.818L331.777 560.818" stroke="white" stroke-width="3.47776"/>
<path d="M238.747 527.393L270.152 581.215L346.992 581.215" stroke="white" stroke-width="3.47776"/>
<path d="M250.229 611.767L250.73 591.694L267.863 602.164L250.229 611.767ZM256.906 597.506L267.873 579.56L270.84 581.373L259.873 599.32L256.906 597.506Z" fill="#06DAFF"/>
<ellipse cx="6.60774" cy="6.60775" rx="6.60774" ry="6.60775" transform="matrix(1 0 0 -1 267.769 586.187)" fill="white"/>
<ellipse cx="3.96463" cy="3.9647" rx="3.96463" ry="3.9647" transform="matrix(1 0 0 -1 381.77 564.779)" fill="#06DAFF"/>
<ellipse cx="3.96463" cy="3.9647" rx="3.96463" ry="3.9647" transform="matrix(1 0 0 -1 231.357 484.791)" fill="#06DAFF"/>
</g>
<g filter="url(#filter4_d_1_971)">
<path d="M208.403 233.418L150.696 334.89L201.883 425.565L203.85 426.956" stroke="#06DAFF" stroke-width="1.73888"/>
<path d="M170.961 300.323L150.566 336.192L175.345 379.111" stroke="white" stroke-width="3.47776"/>
<path d="M157.776 281.832L126.868 335.941L165.288 402.486" stroke="white" stroke-width="3.47776"/>
<path d="M27 334.904L44.3888 344.943L44.3888 324.864L27 334.904ZM42.6499 336.643L124 336.643L124 333.165L42.6499 333.165L42.6499 336.643Z" fill="#06DAFF"/>
<ellipse cx="6.60775" cy="6.60774" rx="6.60775" ry="6.60774" transform="matrix(0.5 0.866026 0.866025 -0.5 120.869 335.18)" fill="white"/>
<ellipse cx="3.96463" cy="3.9647" rx="3.96463" ry="3.9647" transform="matrix(0.5 0.866026 0.866025 -0.5 197.837 427.79)" fill="#06DAFF"/>
<ellipse cx="3.96463" cy="3.9647" rx="3.96463" ry="3.9647" transform="matrix(0.5 0.866026 0.866025 -0.5 203.054 233.905)" fill="#06DAFF"/>
</g>
<g filter="url(#filter5_d_1_971)">
<path d="M632.469 232.749L690.175 334.221L638.989 424.895L637.022 426.287" stroke="#06DAFF" stroke-width="1.73888"/>
<path d="M669.911 299.654L690.307 335.523L665.528 378.442" stroke="white" stroke-width="3.47776"/>
<path d="M683.096 281.163L714.004 335.272L675.584 401.818" stroke="white" stroke-width="3.47776"/>
<path d="M750.424 333.294L732.79 323.691L733.291 343.764L750.424 333.294ZM734.736 331.946L713.711 332.471L713.797 335.947L734.823 335.423L734.736 331.946Z" fill="#06DAFF"/>
<ellipse cx="713.596" cy="336.298" rx="6.60775" ry="6.60774" transform="rotate(120 713.596 336.298)" fill="white"/>
<ellipse cx="637.619" cy="428.572" rx="3.96463" ry="3.9647" transform="rotate(120 637.619 428.572)" fill="#06DAFF"/>
<ellipse cx="632.402" cy="234.687" rx="3.96463" ry="3.9647" transform="rotate(120 632.402 234.687)" fill="#06DAFF"/>
</g>
<g opacity="0.5">
<g filter="url(#filter6_d_1_971)">
<path d="M187.655 136.955L252.903 32.9704L391.104 32.9696" stroke="white" stroke-width="2.26054"/>
<path d="M225.776 79.2511L252.903 32.9736L317.328 32.9736" stroke="white" stroke-width="4.52109"/>
<path d="M196.389 76.425L237.216 6.45753L337.109 6.45749" stroke="white" stroke-width="4.52109"/>
<path d="M211.316 -33.2593L211.967 -7.16489L234.24 -20.776L211.316 -33.2593ZM219.996 -14.7206L234.253 8.60929L238.111 6.25177L223.854 -17.0781L219.996 -14.7206Z" fill="#06DAFF"/>
<ellipse cx="235.992" cy="7.44554" rx="8.59007" ry="8.59007" fill="white"/>
<ellipse cx="387.473" cy="32.9778" rx="5.15402" ry="5.15411" fill="#06DAFF"/>
<ellipse cx="191.936" cy="136.963" rx="5.15402" ry="5.15411" fill="#06DAFF"/>
</g>
<g filter="url(#filter7_d_1_971)">
<path d="M669.801 136.955L604.553 32.9704L466.352 32.9696" stroke="white" stroke-width="2.26054"/>
<path d="M631.679 79.2506L604.553 32.9732L540.128 32.9731" stroke="white" stroke-width="4.52109"/>
<path d="M661.067 76.425L620.24 6.45753L520.347 6.4575" stroke="white" stroke-width="4.52109"/>
<path d="M646.14 -33.2593L645.488 -7.16488L623.216 -20.776L646.14 -33.2593ZM637.46 -14.7206L623.202 8.60929L619.345 6.25177L633.602 -17.0781L637.46 -14.7206Z" fill="#06DAFF"/>
<ellipse cx="8.59007" cy="8.59007" rx="8.59007" ry="8.59007" transform="matrix(-1 0 0 1 631.592 -1.14453)" fill="white"/>
<ellipse cx="5.15402" cy="5.15411" rx="5.15402" ry="5.15411" transform="matrix(-1 0 0 1 475.137 27.8232)" fill="#06DAFF"/>
<ellipse cx="5.15402" cy="5.15411" rx="5.15402" ry="5.15411" transform="matrix(-1 0 0 1 670.674 131.809)" fill="#06DAFF"/>
</g>
<g filter="url(#filter8_d_1_971)">
<path d="M669.801 532.565L604.553 636.55L466.352 636.55" stroke="white" stroke-width="2.26054"/>
<path d="M631.679 590.269L604.553 636.547L540.128 636.547" stroke="white" stroke-width="4.52109"/>
<path d="M661.067 593.095L620.24 663.062L520.347 663.063" stroke="white" stroke-width="4.52109"/>
<path d="M646.14 702.78L645.488 676.685L623.216 690.297L646.14 702.78ZM637.46 684.241L623.203 660.911L619.345 663.269L633.602 686.599L637.46 684.241Z" fill="#06DAFF"/>
<ellipse cx="623.002" cy="661.475" rx="8.59007" ry="8.59007" transform="rotate(-180 623.002 661.475)" fill="white"/>
<ellipse cx="469.983" cy="636.543" rx="5.15402" ry="5.15411" transform="rotate(-180 469.983 636.543)" fill="#06DAFF"/>
<ellipse cx="665.52" cy="532.557" rx="5.15402" ry="5.15411" transform="rotate(-180 665.52 532.557)" fill="#06DAFF"/>
</g>
<g filter="url(#filter9_d_1_971)">
<path d="M182.628 524.655L247.876 628.639L386.077 628.64" stroke="white" stroke-width="2.26054"/>
<path d="M220.75 582.359L247.876 628.636L312.301 628.636" stroke="white" stroke-width="4.52109"/>
<path d="M191.363 585.184L232.19 655.151L332.082 655.151" stroke="white" stroke-width="4.52109"/>
<path d="M206.29 694.869L206.941 668.775L229.214 682.386L206.29 694.869ZM214.97 676.331L229.227 653.001L233.084 655.358L218.827 678.688L214.97 676.331Z" fill="#06DAFF"/>
<ellipse cx="8.59007" cy="8.59007" rx="8.59007" ry="8.59007" transform="matrix(1 0 0 -1 229.092 661.615)" fill="white"/>
<ellipse cx="5.15402" cy="5.15411" rx="5.15402" ry="5.15411" transform="matrix(1 0 0 -1 377.292 633.786)" fill="#06DAFF"/>
<ellipse cx="5.15402" cy="5.15411" rx="5.15402" ry="5.15411" transform="matrix(1 0 0 -1 181.755 529.8)" fill="#06DAFF"/>
</g>
<g filter="url(#filter10_d_1_971)">
<path d="M151.93 203.008L76.911 334.921L143.453 452.798L146.011 454.608" stroke="#06DAFF" stroke-width="2.26054"/>
<path d="M103.255 289.983L76.7407 336.614L108.953 392.408" stroke="white" stroke-width="4.52109"/>
<path d="M86.1145 265.946L45.9344 336.287L95.8805 422.797" stroke="white" stroke-width="4.52109"/>
<path d="M8 335L30.6054 348.051L30.6054 321.948L8 335ZM28.3449 337.26L50 337.26L50 332.739L28.3449 332.739L28.3449 337.26Z" fill="#06DAFF"/>
<ellipse cx="8.59007" cy="8.59007" rx="8.59007" ry="8.59007" transform="matrix(0.5 0.866026 0.866025 -0.5 38.1355 335.298)" fill="white"/>
<ellipse cx="5.15403" cy="5.15411" rx="5.15403" ry="5.15411" transform="matrix(0.5 0.866026 0.866025 -0.5 138.194 455.691)" fill="#06DAFF"/>
<ellipse cx="5.15403" cy="5.15411" rx="5.15403" ry="5.15411" transform="matrix(0.5 0.866026 0.866025 -0.5 144.976 203.64)" fill="#06DAFF"/>
</g>
<g filter="url(#filter11_d_1_971)">
<path d="M703.201 202.147L778.22 334.06L711.678 451.937L709.12 453.746" stroke="#06DAFF" stroke-width="2.26054"/>
<path d="M751.876 289.122L778.391 335.753L746.178 391.547" stroke="white" stroke-width="4.52109"/>
<path d="M769.016 265.085L809.196 335.426L759.25 421.935" stroke="white" stroke-width="4.52109"/>
<path d="M856.543 332.855L833.619 320.372L834.27 346.466L856.543 332.855ZM836.148 331.103L808.815 331.785L808.928 336.305L836.261 335.622L836.148 331.103Z" fill="#06DAFF"/>
<ellipse cx="808.666" cy="336.76" rx="8.59007" ry="8.59007" transform="rotate(120 808.666 336.76)" fill="white"/>
<ellipse cx="709.896" cy="456.717" rx="5.15403" ry="5.15411" transform="rotate(120 709.896 456.717)" fill="#06DAFF"/>
<ellipse cx="703.115" cy="204.666" rx="5.15403" ry="5.15411" transform="rotate(120 703.115 204.666)" fill="#06DAFF"/>
</g>
</g>
<g filter="url(#filter12_d_1_971)">
<path d="M492.307 227.128C491.918 226.454 491.199 226.039 490.421 226.039L361.502 226.039C360.724 226.039 360.005 226.454 359.616 227.128L295.157 338.775C294.768 339.449 294.768 340.279 295.157 340.953L359.616 452.6C360.005 453.273 360.724 453.689 361.502 453.689L490.421 453.689C491.199 453.689 491.918 453.273 492.307 452.6L556.767 340.953C557.156 340.279 557.156 339.449 556.767 338.775L492.307 227.128Z" stroke="white" stroke-width="2.6" shape-rendering="crispEdges"/>
</g>
<g filter="url(#filter13_d_1_971)">
<path d="M505.576 204.581C505.109 203.772 504.247 203.274 503.313 203.274L348.61 203.274C347.677 203.274 346.814 203.773 346.347 204.581L268.996 338.557C268.529 339.366 268.529 340.362 268.996 341.171L346.347 475.147C346.814 475.955 347.677 476.454 348.61 476.454L503.313 476.454C504.247 476.454 505.109 475.955 505.576 475.147L582.928 341.171C583.394 340.362 583.395 339.366 582.928 338.557L505.576 204.581Z" stroke="white" stroke-width="3.12" shape-rendering="crispEdges"/>
</g>
<g filter="url(#filter14_d_1_971)">
<path d="M450.718 298.26C450.329 297.587 449.61 297.172 448.832 297.172L403.047 297.172C402.269 297.172 401.55 297.587 401.161 298.26L378.269 337.911C377.88 338.585 377.88 339.415 378.269 340.089L401.161 379.74C401.55 380.414 402.269 380.829 403.047 380.829L448.832 380.829C449.61 380.829 450.329 380.414 450.718 379.74L473.611 340.089C474 339.415 474 338.585 473.611 337.911L450.718 298.26Z" stroke="white" stroke-width="2.6" shape-rendering="crispEdges"/>
</g>
<defs>
<filter id="filter0_d_1_971" x="229.724" y="51.668" width="169.275" height="145.772" filterUnits="userSpaceOnUse" color-interpolation-filters="sRGB">
<feFlood flood-opacity="0" result="BackgroundImageFix"/>
<feColorMatrix in="SourceAlpha" type="matrix" values="0 0 0 0 0 0 0 0 0 0 0 0 0 0 0 0 0 0 127 0" result="hardAlpha"/>
<feOffset dy="5.434"/>
<feGaussianBlur stdDeviation="2.717"/>
<feComposite in2="hardAlpha" operator="out"/>
<feColorMatrix type="matrix" values="0 0 0 0 1 0 0 0 0 1 0 0 0 0 1 0 0 0 1 0"/>
<feBlend mode="normal" in2="BackgroundImageFix" result="effect1_dropShadow_1_971"/>
<feBlend mode="normal" in="SourceGraphic" in2="effect1_dropShadow_1_971" result="shape"/>
</filter>
<filter id="filter1_d_1_971" x="443.671" y="51.668" width="169.275" height="145.772" filterUnits="userSpaceOnUse" color-interpolation-filters="sRGB">
<feFlood flood-opacity="0" result="BackgroundImageFix"/>
<feColorMatrix in="SourceAlpha" type="matrix" values="0 0 0 0 0 0 0 0 0 0 0 0 0 0 0 0 0 0 127 0" result="hardAlpha"/>
<feOffset dy="5.434"/>
<feGaussianBlur stdDeviation="2.717"/>
<feComposite in2="hardAlpha" operator="out"/>
<feColorMatrix type="matrix" values="0 0 0 0 1 0 0 0 0 1 0 0 0 0 1 0 0 0 1 0"/>
<feBlend mode="normal" in2="BackgroundImageFix" result="effect1_dropShadow_1_971"/>
<feBlend mode="normal" in="SourceGraphic" in2="effect1_dropShadow_1_971" result="shape"/>
</filter>
<filter id="filter2_d_1_971" x="443.671" y="482.947" width="169.275" height="145.773" filterUnits="userSpaceOnUse" color-interpolation-filters="sRGB">
<feFlood flood-opacity="0" result="BackgroundImageFix"/>
<feColorMatrix in="SourceAlpha" type="matrix" values="0 0 0 0 0 0 0 0 0 0 0 0 0 0 0 0 0 0 127 0" result="hardAlpha"/>
<feOffset dy="5.434"/>
<feGaussianBlur stdDeviation="2.717"/>
<feComposite in2="hardAlpha" operator="out"/>
<feColorMatrix type="matrix" values="0 0 0 0 1 0 0 0 0 1 0 0 0 0 1 0 0 0 1 0"/>
<feBlend mode="normal" in2="BackgroundImageFix" result="effect1_dropShadow_1_971"/>
<feBlend mode="normal" in="SourceGraphic" in2="effect1_dropShadow_1_971" result="shape"/>
</filter>
<filter id="filter3_d_1_971" x="225.858" y="476.861" width="169.275" height="145.773" filterUnits="userSpaceOnUse" color-interpolation-filters="sRGB">
<feFlood flood-opacity="0" result="BackgroundImageFix"/>
<feColorMatrix in="SourceAlpha" type="matrix" values="0 0 0 0 0 0 0 0 0 0 0 0 0 0 0 0 0 0 127 0" result="hardAlpha"/>
<feOffset dy="5.434"/>
<feGaussianBlur stdDeviation="2.717"/>
<feComposite in2="hardAlpha" operator="out"/>
<feColorMatrix type="matrix" values="0 0 0 0 1 0 0 0 0 1 0 0 0 0 1 0 0 0 1 0"/>
<feBlend mode="normal" in2="BackgroundImageFix" result="effect1_dropShadow_1_971"/>
<feBlend mode="normal" in="SourceGraphic" in2="effect1_dropShadow_1_971" result="shape"/>
</filter>
<filter id="filter4_d_1_971" x="21.566" y="231.391" width="196.303" height="212.684" filterUnits="userSpaceOnUse" color-interpolation-filters="sRGB">
<feFlood flood-opacity="0" result="BackgroundImageFix"/>
<feColorMatrix in="SourceAlpha" type="matrix" values="0 0 0 0 0 0 0 0 0 0 0 0 0 0 0 0 0 0 127 0" result="hardAlpha"/>
<feOffset dy="5.434"/>
<feGaussianBlur stdDeviation="2.717"/>
<feComposite in2="hardAlpha" operator="out"/>
<feColorMatrix type="matrix" values="0 0 0 0 1 0 0 0 0 1 0 0 0 0 1 0 0 0 1 0"/>
<feBlend mode="normal" in2="BackgroundImageFix" result="effect1_dropShadow_1_971"/>
<feBlend mode="normal" in="SourceGraphic" in2="effect1_dropShadow_1_971" result="shape"/>
</filter>
<filter id="filter5_d_1_971" x="623.003" y="230.722" width="132.855" height="212.684" filterUnits="userSpaceOnUse" color-interpolation-filters="sRGB">
<feFlood flood-opacity="0" result="BackgroundImageFix"/>
<feColorMatrix in="SourceAlpha" type="matrix" values="0 0 0 0 0 0 0 0 0 0 0 0 0 0 0 0 0 0 127 0" result="hardAlpha"/>
<feOffset dy="5.434"/>
<feGaussianBlur stdDeviation="2.717"/>
<feComposite in2="hardAlpha" operator="out"/>
<feColorMatrix type="matrix" values="0 0 0 0 1 0 0 0 0 1 0 0 0 0 1 0 0 0 1 0"/>
<feBlend mode="normal" in2="BackgroundImageFix" result="effect1_dropShadow_1_971"/>
<feBlend mode="normal" in="SourceGraphic" in2="effect1_dropShadow_1_971" result="shape"/>
</filter>
<filter id="filter6_d_1_971" x="179.634" y="-33.2593" width="220.058" height="189.504" filterUnits="userSpaceOnUse" color-interpolation-filters="sRGB">
<feFlood flood-opacity="0" result="BackgroundImageFix"/>
<feColorMatrix in="SourceAlpha" type="matrix" values="0 0 0 0 0 0 0 0 0 0 0 0 0 0 0 0 0 0 127 0" result="hardAlpha"/>
<feOffset dy="7.0642"/>
<feGaussianBlur stdDeviation="3.5321"/>
<feComposite in2="hardAlpha" operator="out"/>
<feColorMatrix type="matrix" values="0 0 0 0 1 0 0 0 0 1 0 0 0 0 1 0 0 0 1 0"/>
<feBlend mode="normal" in2="BackgroundImageFix" result="effect1_dropShadow_1_971"/>
<feBlend mode="normal" in="SourceGraphic" in2="effect1_dropShadow_1_971" result="shape"/>
</filter>
<filter id="filter7_d_1_971" x="457.764" y="-33.2593" width="220.058" height="189.504" filterUnits="userSpaceOnUse" color-interpolation-filters="sRGB">
<feFlood flood-opacity="0" result="BackgroundImageFix"/>
<feColorMatrix in="SourceAlpha" type="matrix" values="0 0 0 0 0 0 0 0 0 0 0 0 0 0 0 0 0 0 127 0" result="hardAlpha"/>
<feOffset dy="7.0642"/>
<feGaussianBlur stdDeviation="3.5321"/>
<feComposite in2="hardAlpha" operator="out"/>
<feColorMatrix type="matrix" values="0 0 0 0 1 0 0 0 0 1 0 0 0 0 1 0 0 0 1 0"/>
<feBlend mode="normal" in2="BackgroundImageFix" result="effect1_dropShadow_1_971"/>
<feBlend mode="normal" in="SourceGraphic" in2="effect1_dropShadow_1_971" result="shape"/>
</filter>
<filter id="filter8_d_1_971" x="457.765" y="527.403" width="220.058" height="189.505" filterUnits="userSpaceOnUse" color-interpolation-filters="sRGB">
<feFlood flood-opacity="0" result="BackgroundImageFix"/>
<feColorMatrix in="SourceAlpha" type="matrix" values="0 0 0 0 0 0 0 0 0 0 0 0 0 0 0 0 0 0 127 0" result="hardAlpha"/>
<feOffset dy="7.0642"/>
<feGaussianBlur stdDeviation="3.5321"/>
<feComposite in2="hardAlpha" operator="out"/>
<feColorMatrix type="matrix" values="0 0 0 0 1 0 0 0 0 1 0 0 0 0 1 0 0 0 1 0"/>
<feBlend mode="normal" in2="BackgroundImageFix" result="effect1_dropShadow_1_971"/>
<feBlend mode="normal" in="SourceGraphic" in2="effect1_dropShadow_1_971" result="shape"/>
</filter>
<filter id="filter9_d_1_971" x="174.607" y="519.492" width="220.058" height="189.506" filterUnits="userSpaceOnUse" color-interpolation-filters="sRGB">
<feFlood flood-opacity="0" result="BackgroundImageFix"/>
<feColorMatrix in="SourceAlpha" type="matrix" values="0 0 0 0 0 0 0 0 0 0 0 0 0 0 0 0 0 0 127 0" result="hardAlpha"/>
<feOffset dy="7.0642"/>
<feGaussianBlur stdDeviation="3.5321"/>
<feComposite in2="hardAlpha" operator="out"/>
<feColorMatrix type="matrix" values="0 0 0 0 1 0 0 0 0 1 0 0 0 0 1 0 0 0 1 0"/>
<feBlend mode="normal" in2="BackgroundImageFix" result="effect1_dropShadow_1_971"/>
<feBlend mode="normal" in="SourceGraphic" in2="effect1_dropShadow_1_971" result="shape"/>
</filter>
<filter id="filter10_d_1_971" x="0.9358" y="200.372" width="163.3" height="276.49" filterUnits="userSpaceOnUse" color-interpolation-filters="sRGB">
<feFlood flood-opacity="0" result="BackgroundImageFix"/>
<feColorMatrix in="SourceAlpha" type="matrix" values="0 0 0 0 0 0 0 0 0 0 0 0 0 0 0 0 0 0 127 0" result="hardAlpha"/>
<feOffset dy="7.0642"/>
<feGaussianBlur stdDeviation="3.5321"/>
<feComposite in2="hardAlpha" operator="out"/>
<feColorMatrix type="matrix" values="0 0 0 0 1 0 0 0 0 1 0 0 0 0 1 0 0 0 1 0"/>
<feBlend mode="normal" in2="BackgroundImageFix" result="effect1_dropShadow_1_971"/>
<feBlend mode="normal" in="SourceGraphic" in2="effect1_dropShadow_1_971" result="shape"/>
</filter>
<filter id="filter11_d_1_971" x="690.896" y="199.511" width="172.712" height="276.489" filterUnits="userSpaceOnUse" color-interpolation-filters="sRGB">
<feFlood flood-opacity="0" result="BackgroundImageFix"/>
<feColorMatrix in="SourceAlpha" type="matrix" values="0 0 0 0 0 0 0 0 0 0 0 0 0 0 0 0 0 0 127 0" result="hardAlpha"/>
<feOffset dy="7.0642"/>
<feGaussianBlur stdDeviation="3.5321"/>
<feComposite in2="hardAlpha" operator="out"/>
<feColorMatrix type="matrix" values="0 0 0 0 1 0 0 0 0 1 0 0 0 0 1 0 0 0 1 0"/>
<feBlend mode="normal" in2="BackgroundImageFix" result="effect1_dropShadow_1_971"/>
<feBlend mode="normal" in="SourceGraphic" in2="effect1_dropShadow_1_971" result="shape"/>
</filter>
<filter id="filter12_d_1_971" x="284.465" y="220.839" width="282.993" height="248.45" filterUnits="userSpaceOnUse" color-interpolation-filters="sRGB">
<feFlood flood-opacity="0" result="BackgroundImageFix"/>
<feColorMatrix in="SourceAlpha" type="matrix" values="0 0 0 0 0 0 0 0 0 0 0 0 0 0 0 0 0 0 127 0" result="hardAlpha"/>
<feOffset dy="5.2"/>
<feGaussianBlur stdDeviation="4.55"/>
<feComposite in2="hardAlpha" operator="out"/>
<feColorMatrix type="matrix" values="0 0 0 0 1 0 0 0 0 1 0 0 0 0 1 0 0 0 1 0"/>
<feBlend mode="normal" in2="BackgroundImageFix" result="effect1_dropShadow_1_971"/>
<feBlend mode="normal" in="SourceGraphic" in2="effect1_dropShadow_1_971" result="shape"/>
</filter>
<filter id="filter13_d_1_971" x="256.165" y="197.034" width="339.592" height="298.139" filterUnits="userSpaceOnUse" color-interpolation-filters="sRGB">
<feFlood flood-opacity="0" result="BackgroundImageFix"/>
<feColorMatrix in="SourceAlpha" type="matrix" values="0 0 0 0 0 0 0 0 0 0 0 0 0 0 0 0 0 0 127 0" result="hardAlpha"/>
<feOffset dy="6.24"/>
<feGaussianBlur stdDeviation="5.46"/>
<feComposite in2="hardAlpha" operator="out"/>
<feColorMatrix type="matrix" values="0 0 0 0 1 0 0 0 0 1 0 0 0 0 1 0 0 0 1 0"/>
<feBlend mode="normal" in2="BackgroundImageFix" result="effect1_dropShadow_1_971"/>
<feBlend mode="normal" in="SourceGraphic" in2="effect1_dropShadow_1_971" result="shape"/>
</filter>
<filter id="filter14_d_1_971" x="367.577" y="286.772" width="116.726" height="104.458" filterUnits="userSpaceOnUse" color-interpolation-filters="sRGB">
<feFlood flood-opacity="0" result="BackgroundImageFix"/>
<feColorMatrix in="SourceAlpha" type="matrix" values="0 0 0 0 0 0 0 0 0 0 0 0 0 0 0 0 0 0 127 0" result="hardAlpha"/>
<feOffset/>
<feGaussianBlur stdDeviation="4.55"/>
<feComposite in2="hardAlpha" operator="out"/>
<feColorMatrix type="matrix" values="0 0 0 0 1 0 0 0 0 1 0 0 0 0 1 0 0 0 1 0"/>
<feBlend mode="normal" in2="BackgroundImageFix" result="effect1_dropShadow_1_971"/>
<feBlend mode="normal" in="SourceGraphic" in2="effect1_dropShadow_1_971" result="shape"/>
</filter>
</defs>
</svg>
