<svg width="284" height="250" viewBox="0 0 284 250" fill="none" xmlns="http://www.w3.org/2000/svg">
<g filter="url(#filter0_d_1_1179)">
<path d="M209.064 6.20624C208.442 5.13021 207.294 4.46736 206.052 4.46736L77.1327 4.46737C75.8902 4.46736 74.7421 5.13022 74.1209 6.20624L9.66138 117.853C9.04014 118.929 9.04013 120.255 9.66137 121.331L74.1209 232.978C74.7421 234.054 75.8902 234.717 77.1327 234.717L206.052 234.717C207.294 234.717 208.442 234.054 209.064 232.978L273.523 121.331C274.144 120.255 274.144 118.929 273.523 117.853L209.064 6.20624Z" fill="url(#paint0_linear_1_1179)" shape-rendering="crispEdges"/>
</g>
<defs>
<filter id="filter0_d_1_1179" x="0.0955553" y="0.567285" width="282.993" height="248.449" filterUnits="userSpaceOnUse" color-interpolation-filters="sRGB">
<feFlood flood-opacity="0" result="BackgroundImageFix"/>
<feColorMatrix in="SourceAlpha" type="matrix" values="0 0 0 0 0 0 0 0 0 0 0 0 0 0 0 0 0 0 127 0" result="hardAlpha"/>
<feOffset dy="5.2"/>
<feGaussianBlur stdDeviation="4.55"/>
<feComposite in2="hardAlpha" operator="out"/>
<feColorMatrix type="matrix" values="0 0 0 0 0 0 0 0 0 0.145098 0 0 0 0 0.34902 0 0 0 1 0"/>
<feBlend mode="normal" in2="BackgroundImageFix" result="effect1_dropShadow_1_1179"/>
<feBlend mode="normal" in="SourceGraphic" in2="effect1_dropShadow_1_1179" result="shape"/>
</filter>
<linearGradient id="paint0_linear_1_1179" x1="381" y1="6.00011" x2="-39.9993" y2="274.501" gradientUnits="userSpaceOnUse">
<stop stop-color="#01143F"/>
<stop offset="1" stop-color="#8F9CBA" stop-opacity="0"/>
</linearGradient>
</defs>
</svg>
