<svg width="529" height="377" viewBox="0 0 529 377" fill="none" xmlns="http://www.w3.org/2000/svg">
<g opacity="0.5">
<g filter="url(#filter0_d_1_1183)">
<path d="M113.286 86.1744L145.91 34.1822L215.011 34.1818" stroke="white" stroke-width="1.13027"/>
<path d="M132.347 57.3226L145.91 34.1838L178.123 34.1838" stroke="white" stroke-width="2.26054"/>
<path d="M117.653 55.9095L138.067 20.9258L188.013 20.9258" stroke="white" stroke-width="2.26054"/>
<path d="M125.117 1.06738L125.443 14.1146L136.579 7.309L125.117 1.06738ZM129.457 10.3367L136.585 22.0017L138.514 20.8229L131.386 9.15797L129.457 10.3367Z" fill="#06DAFF"/>
<ellipse cx="137.455" cy="21.4198" rx="4.29503" ry="4.29504" fill="white"/>
<ellipse cx="213.195" cy="34.1859" rx="2.57701" ry="2.57705" fill="#06DAFF"/>
<ellipse cx="115.427" cy="86.1784" rx="2.57701" ry="2.57705" fill="#06DAFF"/>
</g>
<g filter="url(#filter1_d_1_1183)">
<path d="M354.359 86.1744L321.735 34.1822L252.635 34.1818" stroke="white" stroke-width="1.13027"/>
<path d="M335.299 57.3223L321.735 34.1836L289.523 34.1836" stroke="white" stroke-width="2.26054"/>
<path d="M349.992 55.9095L329.579 20.9258L279.633 20.9258" stroke="white" stroke-width="2.26054"/>
<path d="M342.529 1.06738L342.203 14.1146L331.067 7.309L342.529 1.06738ZM338.189 10.3367L331.06 22.0017L329.131 20.8229L336.26 9.15797L338.189 10.3367Z" fill="#06DAFF"/>
<ellipse cx="4.29503" cy="4.29504" rx="4.29503" ry="4.29504" transform="matrix(-1 0 0 1 335.255 17.1248)" fill="white"/>
<ellipse cx="2.57701" cy="2.57705" rx="2.57701" ry="2.57705" transform="matrix(-1 0 0 1 257.027 31.6086)" fill="#06DAFF"/>
<ellipse cx="2.57701" cy="2.57705" rx="2.57701" ry="2.57705" transform="matrix(-1 0 0 1 354.796 83.6013)" fill="#06DAFF"/>
</g>
<g filter="url(#filter2_d_1_1183)">
<path d="M354.359 283.98L321.735 335.972L252.635 335.972" stroke="white" stroke-width="1.13027"/>
<path d="M335.299 312.832L321.735 335.97L289.523 335.97" stroke="white" stroke-width="2.26054"/>
<path d="M349.992 314.245L329.579 349.228L279.633 349.228" stroke="white" stroke-width="2.26054"/>
<path d="M342.529 369.087L342.203 356.04L331.067 362.845L342.529 369.087ZM338.189 359.818L331.06 348.153L329.131 349.331L336.26 360.996L338.189 359.818Z" fill="#06DAFF"/>
<ellipse cx="330.96" cy="348.435" rx="4.29503" ry="4.29504" transform="rotate(-180 330.96 348.435)" fill="white"/>
<ellipse cx="254.45" cy="335.968" rx="2.57701" ry="2.57705" transform="rotate(-180 254.45 335.968)" fill="#06DAFF"/>
<ellipse cx="352.219" cy="283.976" rx="2.57701" ry="2.57705" transform="rotate(-180 352.219 283.976)" fill="#06DAFF"/>
</g>
<g filter="url(#filter3_d_1_1183)">
<path d="M110.773 280.024L143.397 332.017L212.498 332.017" stroke="white" stroke-width="1.13027"/>
<path d="M129.834 308.876L143.397 332.015L175.61 332.015" stroke="white" stroke-width="2.26054"/>
<path d="M115.14 310.289L135.554 345.273L185.5 345.273" stroke="white" stroke-width="2.26054"/>
<path d="M122.604 365.132L122.929 352.084L134.066 358.89L122.604 365.132ZM126.944 355.862L134.072 344.197L136.001 345.376L128.873 357.041L126.944 355.862Z" fill="#06DAFF"/>
<ellipse cx="4.29503" cy="4.29504" rx="4.29503" ry="4.29504" transform="matrix(1 0 0 -1 134.005 348.505)" fill="white"/>
<ellipse cx="2.57701" cy="2.57705" rx="2.57701" ry="2.57705" transform="matrix(1 0 0 -1 208.105 334.59)" fill="#06DAFF"/>
<ellipse cx="2.57701" cy="2.57705" rx="2.57701" ry="2.57705" transform="matrix(1 0 0 -1 110.337 282.597)" fill="#06DAFF"/>
</g>
<g filter="url(#filter4_d_1_1183)">
<path d="M95.4239 119.201L57.9145 185.158L91.1854 244.096L92.4645 245.001" stroke="#06DAFF" stroke-width="1.13027"/>
<path d="M71.0865 162.689L57.8294 186.004L73.9357 213.901" stroke="white" stroke-width="2.26054"/>
<path d="M62.5161 150.67L42.4261 185.841L67.3991 229.095" stroke="white" stroke-width="2.26054"/>
<path d="M23.459 185.197L34.7617 191.722L34.7617 178.671L23.459 185.197ZM33.6314 186.327L44.459 186.327L44.459 184.067L33.6314 184.067L33.6314 186.327Z" fill="#06DAFF"/>
<ellipse cx="4.29503" cy="4.29503" rx="4.29503" ry="4.29503" transform="matrix(0.5 0.866026 0.866025 -0.5 38.5266 185.346)" fill="white"/>
<ellipse cx="2.57701" cy="2.57705" rx="2.57701" ry="2.57705" transform="matrix(0.5 0.866026 0.866025 -0.5 88.5559 245.543)" fill="#06DAFF"/>
<ellipse cx="2.57701" cy="2.57705" rx="2.57701" ry="2.57705" transform="matrix(0.5 0.866026 0.866025 -0.5 91.947 119.517)" fill="#06DAFF"/>
</g>
<g filter="url(#filter5_d_1_1183)">
<path d="M371.059 118.77L408.569 184.727L375.298 243.665L374.019 244.57" stroke="#06DAFF" stroke-width="1.13027"/>
<path d="M395.397 162.258L408.654 185.574L392.548 213.471" stroke="white" stroke-width="2.26054"/>
<path d="M403.967 150.24L424.057 185.41L399.084 228.665" stroke="white" stroke-width="2.26054"/>
<path d="M447.731 184.125L436.269 177.883L436.594 190.93L447.731 184.125ZM437.533 183.248L423.867 183.589L423.923 185.849L437.59 185.508L437.533 183.248Z" fill="#06DAFF"/>
<ellipse cx="423.792" cy="186.077" rx="4.29503" ry="4.29503" transform="rotate(120 423.792 186.077)" fill="white"/>
<ellipse cx="374.407" cy="246.055" rx="2.57701" ry="2.57705" transform="rotate(120 374.407 246.055)" fill="#06DAFF"/>
<ellipse cx="371.016" cy="120.03" rx="2.57701" ry="2.57705" transform="rotate(120 371.016 120.03)" fill="#06DAFF"/>
</g>
<g filter="url(#filter6_d_1_1183)">
<path d="M316.587 118.77L354.096 184.727L320.825 243.665L319.546 244.57" stroke="#06DAFF" stroke-width="1.13027"/>
<path d="M340.924 162.258L354.181 185.573L338.075 213.47" stroke="white" stroke-width="2.26054"/>
<path d="M349.494 150.239L369.584 185.41L344.611 228.664" stroke="white" stroke-width="2.26054"/>
<path d="M393.258 184.124L381.796 177.883L382.121 190.93L393.258 184.124ZM383.06 183.248L369.394 183.589L369.45 185.849L383.117 185.508L383.06 183.248Z" fill="#06DAFF"/>
<ellipse cx="369.319" cy="186.077" rx="4.29503" ry="4.29503" transform="rotate(120 369.319 186.077)" fill="white"/>
<ellipse cx="319.934" cy="246.055" rx="2.57701" ry="2.57705" transform="rotate(120 319.934 246.055)" fill="#06DAFF"/>
<ellipse cx="316.544" cy="120.03" rx="2.57701" ry="2.57705" transform="rotate(120 316.544 120.03)" fill="#06DAFF"/>
<g opacity="0.8" filter="url(#filter7_d_1_1183)">
<path d="M432.587 115.77L470.096 181.727L436.825 240.665L435.546 241.57" stroke="#06DAFF" stroke-width="1.13027"/>
<path d="M456.924 159.258L470.181 182.573L454.075 210.47" stroke="white" stroke-width="2.26054"/>
<path d="M465.494 147.239L485.584 182.41L460.611 225.664" stroke="white" stroke-width="2.26054"/>
<path d="M509.258 181.124L497.796 174.883L498.121 187.93L509.258 181.124ZM499.06 180.248L485.394 180.589L485.45 182.849L499.117 182.508L499.06 180.248Z" fill="#06DAFF"/>
<ellipse cx="485.319" cy="183.077" rx="4.29503" ry="4.29503" transform="rotate(120 485.319 183.077)" fill="white"/>
<ellipse cx="435.934" cy="243.055" rx="2.57701" ry="2.57705" transform="rotate(120 435.934 243.055)" fill="#06DAFF"/>
<ellipse cx="432.543" cy="117.03" rx="2.57701" ry="2.57705" transform="rotate(120 432.543 117.03)" fill="#06DAFF"/>
</g>
</g>
</g>
<defs>
<filter id="filter0_d_1_1183" x="109.276" y="1.06738" width="110.029" height="94.7522" filterUnits="userSpaceOnUse" color-interpolation-filters="sRGB">
<feFlood flood-opacity="0" result="BackgroundImageFix"/>
<feColorMatrix in="SourceAlpha" type="matrix" values="0 0 0 0 0 0 0 0 0 0 0 0 0 0 0 0 0 0 127 0" result="hardAlpha"/>
<feOffset dy="3.5321"/>
<feGaussianBlur stdDeviation="1.76605"/>
<feComposite in2="hardAlpha" operator="out"/>
<feColorMatrix type="matrix" values="0 0 0 0 1 0 0 0 0 1 0 0 0 0 1 0 0 0 1 0"/>
<feBlend mode="normal" in2="BackgroundImageFix" result="effect1_dropShadow_1_1183"/>
<feBlend mode="normal" in="SourceGraphic" in2="effect1_dropShadow_1_1183" result="shape"/>
</filter>
<filter id="filter1_d_1_1183" x="248.341" y="1.06738" width="110.029" height="94.7522" filterUnits="userSpaceOnUse" color-interpolation-filters="sRGB">
<feFlood flood-opacity="0" result="BackgroundImageFix"/>
<feColorMatrix in="SourceAlpha" type="matrix" values="0 0 0 0 0 0 0 0 0 0 0 0 0 0 0 0 0 0 127 0" result="hardAlpha"/>
<feOffset dy="3.5321"/>
<feGaussianBlur stdDeviation="1.76605"/>
<feComposite in2="hardAlpha" operator="out"/>
<feColorMatrix type="matrix" values="0 0 0 0 1 0 0 0 0 1 0 0 0 0 1 0 0 0 1 0"/>
<feBlend mode="normal" in2="BackgroundImageFix" result="effect1_dropShadow_1_1183"/>
<feBlend mode="normal" in="SourceGraphic" in2="effect1_dropShadow_1_1183" result="shape"/>
</filter>
<filter id="filter2_d_1_1183" x="248.341" y="281.399" width="110.029" height="94.7524" filterUnits="userSpaceOnUse" color-interpolation-filters="sRGB">
<feFlood flood-opacity="0" result="BackgroundImageFix"/>
<feColorMatrix in="SourceAlpha" type="matrix" values="0 0 0 0 0 0 0 0 0 0 0 0 0 0 0 0 0 0 127 0" result="hardAlpha"/>
<feOffset dy="3.5321"/>
<feGaussianBlur stdDeviation="1.76605"/>
<feComposite in2="hardAlpha" operator="out"/>
<feColorMatrix type="matrix" values="0 0 0 0 1 0 0 0 0 1 0 0 0 0 1 0 0 0 1 0"/>
<feBlend mode="normal" in2="BackgroundImageFix" result="effect1_dropShadow_1_1183"/>
<feBlend mode="normal" in="SourceGraphic" in2="effect1_dropShadow_1_1183" result="shape"/>
</filter>
<filter id="filter3_d_1_1183" x="106.763" y="277.443" width="110.029" height="94.7527" filterUnits="userSpaceOnUse" color-interpolation-filters="sRGB">
<feFlood flood-opacity="0" result="BackgroundImageFix"/>
<feColorMatrix in="SourceAlpha" type="matrix" values="0 0 0 0 0 0 0 0 0 0 0 0 0 0 0 0 0 0 127 0" result="hardAlpha"/>
<feOffset dy="3.5321"/>
<feGaussianBlur stdDeviation="1.76605"/>
<feComposite in2="hardAlpha" operator="out"/>
<feColorMatrix type="matrix" values="0 0 0 0 1 0 0 0 0 1 0 0 0 0 1 0 0 0 1 0"/>
<feBlend mode="normal" in2="BackgroundImageFix" result="effect1_dropShadow_1_1183"/>
<feBlend mode="normal" in="SourceGraphic" in2="effect1_dropShadow_1_1183" result="shape"/>
</filter>
<filter id="filter4_d_1_1183" x="19.9269" y="117.883" width="81.6499" height="138.245" filterUnits="userSpaceOnUse" color-interpolation-filters="sRGB">
<feFlood flood-opacity="0" result="BackgroundImageFix"/>
<feColorMatrix in="SourceAlpha" type="matrix" values="0 0 0 0 0 0 0 0 0 0 0 0 0 0 0 0 0 0 127 0" result="hardAlpha"/>
<feOffset dy="3.5321"/>
<feGaussianBlur stdDeviation="1.76605"/>
<feComposite in2="hardAlpha" operator="out"/>
<feColorMatrix type="matrix" values="0 0 0 0 1 0 0 0 0 1 0 0 0 0 1 0 0 0 1 0"/>
<feBlend mode="normal" in2="BackgroundImageFix" result="effect1_dropShadow_1_1183"/>
<feBlend mode="normal" in="SourceGraphic" in2="effect1_dropShadow_1_1183" result="shape"/>
</filter>
<filter id="filter5_d_1_1183" x="364.907" y="117.452" width="86.3559" height="138.245" filterUnits="userSpaceOnUse" color-interpolation-filters="sRGB">
<feFlood flood-opacity="0" result="BackgroundImageFix"/>
<feColorMatrix in="SourceAlpha" type="matrix" values="0 0 0 0 0 0 0 0 0 0 0 0 0 0 0 0 0 0 127 0" result="hardAlpha"/>
<feOffset dy="3.5321"/>
<feGaussianBlur stdDeviation="1.76605"/>
<feComposite in2="hardAlpha" operator="out"/>
<feColorMatrix type="matrix" values="0 0 0 0 1 0 0 0 0 1 0 0 0 0 1 0 0 0 1 0"/>
<feBlend mode="normal" in2="BackgroundImageFix" result="effect1_dropShadow_1_1183"/>
<feBlend mode="normal" in="SourceGraphic" in2="effect1_dropShadow_1_1183" result="shape"/>
</filter>
<filter id="filter6_d_1_1183" x="310.434" y="114.452" width="202.356" height="141.244" filterUnits="userSpaceOnUse" color-interpolation-filters="sRGB">
<feFlood flood-opacity="0" result="BackgroundImageFix"/>
<feColorMatrix in="SourceAlpha" type="matrix" values="0 0 0 0 0 0 0 0 0 0 0 0 0 0 0 0 0 0 127 0" result="hardAlpha"/>
<feOffset dy="3.5321"/>
<feGaussianBlur stdDeviation="1.76605"/>
<feComposite in2="hardAlpha" operator="out"/>
<feColorMatrix type="matrix" values="0 0 0 0 1 0 0 0 0 1 0 0 0 0 1 0 0 0 1 0"/>
<feBlend mode="normal" in2="BackgroundImageFix" result="effect1_dropShadow_1_1183"/>
<feBlend mode="normal" in="SourceGraphic" in2="effect1_dropShadow_1_1183" result="shape"/>
</filter>
<filter id="filter7_d_1_1183" x="426.434" y="114.452" width="86.3559" height="138.245" filterUnits="userSpaceOnUse" color-interpolation-filters="sRGB">
<feFlood flood-opacity="0" result="BackgroundImageFix"/>
<feColorMatrix in="SourceAlpha" type="matrix" values="0 0 0 0 0 0 0 0 0 0 0 0 0 0 0 0 0 0 127 0" result="hardAlpha"/>
<feOffset dy="3.5321"/>
<feGaussianBlur stdDeviation="1.76605"/>
<feComposite in2="hardAlpha" operator="out"/>
<feColorMatrix type="matrix" values="0 0 0 0 1 0 0 0 0 1 0 0 0 0 1 0 0 0 1 0"/>
<feBlend mode="normal" in2="BackgroundImageFix" result="effect1_dropShadow_1_1183"/>
<feBlend mode="normal" in="SourceGraphic" in2="effect1_dropShadow_1_1183" result="shape"/>
</filter>
</defs>
</svg>
