<svg width="536" height="406" viewBox="0 0 536 406" fill="none" xmlns="http://www.w3.org/2000/svg">
<g filter="url(#filter0_d_1_1126)">
<path d="M155.247 92.7503L190.381 36.7587L264.797 36.7583" stroke="white" stroke-width="1.21722"/>
<path d="M175.774 61.6794L190.38 36.7608L225.071 36.7608" stroke="white" stroke-width="2.43443"/>
<path d="M159.95 60.1576L181.934 22.4828L235.722 22.4828" stroke="white" stroke-width="2.43443"/>
<path d="M167.988 1.09668L168.338 15.1475L180.331 7.81842L167.988 1.09668ZM172.662 11.0791L180.339 23.6413L182.416 22.3719L174.739 9.80962L172.662 11.0791Z" fill="#06DAFF"/>
<ellipse cx="181.275" cy="23.0148" rx="4.62542" ry="4.62542" fill="white"/>
<ellipse cx="262.842" cy="36.7631" rx="2.77524" ry="2.77529" fill="#06DAFF"/>
<ellipse cx="157.553" cy="92.7548" rx="2.77524" ry="2.77529" fill="#06DAFF"/>
</g>
<g filter="url(#filter1_d_1_1126)">
<path d="M414.369 92.7503L379.236 36.7587L304.82 36.7583" stroke="white" stroke-width="1.21722"/>
<path d="M393.843 61.6792L379.236 36.7605L344.546 36.7605" stroke="white" stroke-width="2.43443"/>
<path d="M409.666 60.1576L387.682 22.4828L333.894 22.4828" stroke="white" stroke-width="2.43443"/>
<path d="M401.629 1.09668L401.278 15.1475L389.285 7.81842L401.629 1.09668ZM396.955 11.0791L389.278 23.6413L387.201 22.3719L394.878 9.80962L396.955 11.0791Z" fill="#06DAFF"/>
<ellipse cx="4.62542" cy="4.62542" rx="4.62542" ry="4.62542" transform="matrix(-1 0 0 1 393.795 18.3894)" fill="white"/>
<ellipse cx="2.77524" cy="2.77529" rx="2.77524" ry="2.77529" transform="matrix(-1 0 0 1 309.55 33.9875)" fill="#06DAFF"/>
<ellipse cx="2.77524" cy="2.77529" rx="2.77524" ry="2.77529" transform="matrix(-1 0 0 1 414.839 89.9795)" fill="#06DAFF"/>
</g>
<g filter="url(#filter2_d_1_1126)">
<path d="M414.865 305.772L379.731 361.763L305.315 361.764" stroke="white" stroke-width="1.21722"/>
<path d="M394.338 336.843L379.731 361.762L345.041 361.762" stroke="white" stroke-width="2.43443"/>
<path d="M410.161 338.365L388.178 376.039L334.389 376.039" stroke="white" stroke-width="2.43443"/>
<path d="M402.124 397.426L401.773 383.375L389.78 390.704L402.124 397.426ZM397.45 387.443L389.773 374.881L387.696 376.151L395.373 388.713L397.45 387.443Z" fill="#06DAFF"/>
<ellipse cx="389.665" cy="375.185" rx="4.62542" ry="4.62542" transform="rotate(-180 389.665 375.185)" fill="white"/>
<ellipse cx="307.27" cy="361.759" rx="2.77524" ry="2.77529" transform="rotate(-180 307.27 361.759)" fill="#06DAFF"/>
<ellipse cx="412.56" cy="305.767" rx="2.77524" ry="2.77529" transform="rotate(-180 412.56 305.767)" fill="#06DAFF"/>
</g>
<g filter="url(#filter3_d_1_1126)">
<path d="M152.541 301.512L187.674 357.503L262.09 357.504" stroke="white" stroke-width="1.21722"/>
<path d="M173.067 332.583L187.674 357.502L222.365 357.502" stroke="white" stroke-width="2.43443"/>
<path d="M157.244 334.105L179.228 371.779L233.016 371.779" stroke="white" stroke-width="2.43443"/>
<path d="M165.282 393.166L165.632 379.115L177.625 386.444L165.282 393.166ZM169.956 383.184L177.632 370.621L179.71 371.891L172.033 384.453L169.956 383.184Z" fill="#06DAFF"/>
<ellipse cx="4.62542" cy="4.62542" rx="4.62542" ry="4.62542" transform="matrix(1 0 0 -1 177.56 375.26)" fill="white"/>
<ellipse cx="2.77524" cy="2.77529" rx="2.77524" ry="2.77529" transform="matrix(1 0 0 -1 257.36 360.275)" fill="#06DAFF"/>
<ellipse cx="2.77524" cy="2.77529" rx="2.77524" ry="2.77529" transform="matrix(1 0 0 -1 152.07 304.283)" fill="#06DAFF"/>
</g>
<g filter="url(#filter4_d_1_1126)">
<path d="M136.004 128.322L95.6089 199.352L131.439 262.824L132.817 263.799" stroke="#06DAFF" stroke-width="1.21722"/>
<path d="M109.794 175.155L95.5171 200.264L112.862 230.307" stroke="white" stroke-width="2.43443"/>
<path d="M100.564 162.212L78.9289 200.088L105.823 246.67" stroke="white" stroke-width="2.43443"/>
<path d="M9.02148 199.362L21.1936 206.389L21.1936 192.334L9.02148 199.362ZM19.9764 200.579L76.9215 200.579L76.9215 198.145L19.9764 198.145L19.9764 200.579Z" fill="#06DAFF"/>
<ellipse cx="4.62542" cy="4.62542" rx="4.62542" ry="4.62542" transform="matrix(0.5 0.866026 0.866025 -0.5 74.7295 199.555)" fill="white"/>
<ellipse cx="2.77524" cy="2.77529" rx="2.77524" ry="2.77529" transform="matrix(0.5 0.866026 0.866025 -0.5 128.607 264.382)" fill="#06DAFF"/>
<ellipse cx="2.77524" cy="2.77529" rx="2.77524" ry="2.77529" transform="matrix(0.5 0.866026 0.866025 -0.5 132.259 128.663)" fill="#06DAFF"/>
</g>
<g filter="url(#filter5_d_1_1126)">
<path d="M432.849 127.854L473.244 198.884L437.414 262.356L436.036 263.331" stroke="#06DAFF" stroke-width="1.21722"/>
<path d="M459.059 174.687L473.336 199.796L455.991 229.839" stroke="white" stroke-width="2.43443"/>
<path d="M468.288 161.744L489.924 199.62L463.03 246.202" stroke="white" stroke-width="2.43443"/>
<path d="M515.418 198.235L503.075 191.513L503.425 205.564L515.418 198.235ZM504.436 197.292L489.719 197.659L489.779 200.093L504.497 199.725L504.436 197.292Z" fill="#06DAFF"/>
<ellipse cx="489.638" cy="200.338" rx="4.62542" ry="4.62542" transform="rotate(120 489.638 200.338)" fill="white"/>
<ellipse cx="436.455" cy="264.93" rx="2.77524" ry="2.77529" transform="rotate(120 436.455 264.93)" fill="#06DAFF"/>
<ellipse cx="432.803" cy="129.21" rx="2.77524" ry="2.77529" transform="rotate(120 432.803 129.21)" fill="#06DAFF"/>
</g>
<defs>
<filter id="filter0_d_1_1126" x="150.928" y="1.09668" width="118.492" height="102.041" filterUnits="userSpaceOnUse" color-interpolation-filters="sRGB">
<feFlood flood-opacity="0" result="BackgroundImageFix"/>
<feColorMatrix in="SourceAlpha" type="matrix" values="0 0 0 0 0 0 0 0 0 0 0 0 0 0 0 0 0 0 127 0" result="hardAlpha"/>
<feOffset dy="3.8038"/>
<feGaussianBlur stdDeviation="1.9019"/>
<feComposite in2="hardAlpha" operator="out"/>
<feColorMatrix type="matrix" values="0 0 0 0 1 0 0 0 0 1 0 0 0 0 1 0 0 0 1 0"/>
<feBlend mode="normal" in2="BackgroundImageFix" result="effect1_dropShadow_1_1126"/>
<feBlend mode="normal" in="SourceGraphic" in2="effect1_dropShadow_1_1126" result="shape"/>
</filter>
<filter id="filter1_d_1_1126" x="300.196" y="1.09668" width="118.492" height="102.041" filterUnits="userSpaceOnUse" color-interpolation-filters="sRGB">
<feFlood flood-opacity="0" result="BackgroundImageFix"/>
<feColorMatrix in="SourceAlpha" type="matrix" values="0 0 0 0 0 0 0 0 0 0 0 0 0 0 0 0 0 0 127 0" result="hardAlpha"/>
<feOffset dy="3.8038"/>
<feGaussianBlur stdDeviation="1.9019"/>
<feComposite in2="hardAlpha" operator="out"/>
<feColorMatrix type="matrix" values="0 0 0 0 1 0 0 0 0 1 0 0 0 0 1 0 0 0 1 0"/>
<feBlend mode="normal" in2="BackgroundImageFix" result="effect1_dropShadow_1_1126"/>
<feBlend mode="normal" in="SourceGraphic" in2="effect1_dropShadow_1_1126" result="shape"/>
</filter>
<filter id="filter2_d_1_1126" x="300.691" y="302.992" width="118.492" height="102.041" filterUnits="userSpaceOnUse" color-interpolation-filters="sRGB">
<feFlood flood-opacity="0" result="BackgroundImageFix"/>
<feColorMatrix in="SourceAlpha" type="matrix" values="0 0 0 0 0 0 0 0 0 0 0 0 0 0 0 0 0 0 127 0" result="hardAlpha"/>
<feOffset dy="3.8038"/>
<feGaussianBlur stdDeviation="1.9019"/>
<feComposite in2="hardAlpha" operator="out"/>
<feColorMatrix type="matrix" values="0 0 0 0 1 0 0 0 0 1 0 0 0 0 1 0 0 0 1 0"/>
<feBlend mode="normal" in2="BackgroundImageFix" result="effect1_dropShadow_1_1126"/>
<feBlend mode="normal" in="SourceGraphic" in2="effect1_dropShadow_1_1126" result="shape"/>
</filter>
<filter id="filter3_d_1_1126" x="148.222" y="298.732" width="118.492" height="102.041" filterUnits="userSpaceOnUse" color-interpolation-filters="sRGB">
<feFlood flood-opacity="0" result="BackgroundImageFix"/>
<feColorMatrix in="SourceAlpha" type="matrix" values="0 0 0 0 0 0 0 0 0 0 0 0 0 0 0 0 0 0 127 0" result="hardAlpha"/>
<feOffset dy="3.8038"/>
<feGaussianBlur stdDeviation="1.9019"/>
<feComposite in2="hardAlpha" operator="out"/>
<feColorMatrix type="matrix" values="0 0 0 0 1 0 0 0 0 1 0 0 0 0 1 0 0 0 1 0"/>
<feBlend mode="normal" in2="BackgroundImageFix" result="effect1_dropShadow_1_1126"/>
<feBlend mode="normal" in="SourceGraphic" in2="effect1_dropShadow_1_1126" result="shape"/>
</filter>
<filter id="filter4_d_1_1126" x="5.21768" y="126.903" width="137.412" height="148.879" filterUnits="userSpaceOnUse" color-interpolation-filters="sRGB">
<feFlood flood-opacity="0" result="BackgroundImageFix"/>
<feColorMatrix in="SourceAlpha" type="matrix" values="0 0 0 0 0 0 0 0 0 0 0 0 0 0 0 0 0 0 127 0" result="hardAlpha"/>
<feOffset dy="3.8038"/>
<feGaussianBlur stdDeviation="1.9019"/>
<feComposite in2="hardAlpha" operator="out"/>
<feColorMatrix type="matrix" values="0 0 0 0 1 0 0 0 0 1 0 0 0 0 1 0 0 0 1 0"/>
<feBlend mode="normal" in2="BackgroundImageFix" result="effect1_dropShadow_1_1126"/>
<feBlend mode="normal" in="SourceGraphic" in2="effect1_dropShadow_1_1126" result="shape"/>
</filter>
<filter id="filter5_d_1_1126" x="426.223" y="126.434" width="92.999" height="148.879" filterUnits="userSpaceOnUse" color-interpolation-filters="sRGB">
<feFlood flood-opacity="0" result="BackgroundImageFix"/>
<feColorMatrix in="SourceAlpha" type="matrix" values="0 0 0 0 0 0 0 0 0 0 0 0 0 0 0 0 0 0 127 0" result="hardAlpha"/>
<feOffset dy="3.8038"/>
<feGaussianBlur stdDeviation="1.9019"/>
<feComposite in2="hardAlpha" operator="out"/>
<feColorMatrix type="matrix" values="0 0 0 0 1 0 0 0 0 1 0 0 0 0 1 0 0 0 1 0"/>
<feBlend mode="normal" in2="BackgroundImageFix" result="effect1_dropShadow_1_1126"/>
<feBlend mode="normal" in="SourceGraphic" in2="effect1_dropShadow_1_1126" result="shape"/>
</filter>
</defs>
</svg>
