<svg width="566" height="460" viewBox="0 0 566 460" fill="none" xmlns="http://www.w3.org/2000/svg">
<g filter="url(#filter0_d_1_893)">
<path d="M301.784 76.8435C301.569 76.471 301.172 76.2416 300.742 76.2416L263.972 76.2416C263.541 76.2416 263.144 76.471 262.929 76.8435L244.544 108.687C244.329 109.06 244.329 109.519 244.544 109.891L262.929 141.735C263.144 142.107 263.541 142.337 263.972 142.337L300.742 142.337C301.172 142.337 301.569 142.107 301.784 141.735L320.169 109.891C320.384 109.519 320.384 109.06 320.169 108.687L301.784 76.8435Z" stroke="white" stroke-width="2.94272"/>
<path d="M367.996 116.972C367.781 116.599 367.383 116.37 366.953 116.37L330.183 116.37C329.753 116.37 329.356 116.599 329.141 116.972L310.756 148.816C310.541 149.188 310.541 149.647 310.756 150.019L329.141 181.863C329.356 182.236 329.753 182.465 330.183 182.465L366.953 182.465C367.383 182.465 367.781 182.236 367.996 181.863L386.381 150.019C386.596 149.647 386.596 149.188 386.381 148.816L367.996 116.972Z" stroke="white" stroke-width="2.94272"/>
<path d="M436.882 153.756C436.667 153.384 436.27 153.154 435.84 153.154L399.069 153.154C398.639 153.154 398.242 153.384 398.027 153.756L379.642 185.6C379.427 185.972 379.427 186.431 379.642 186.804L398.027 218.647C398.242 219.02 398.639 219.249 399.069 219.249L435.84 219.249C436.27 219.249 436.667 219.02 436.882 218.647L455.267 186.804C455.482 186.431 455.482 185.972 455.267 185.6L436.882 153.756Z" stroke="white" stroke-width="2.94272"/>
<path d="M370.671 193.884C370.456 193.511 370.058 193.282 369.628 193.282L332.858 193.282C332.428 193.282 332.031 193.511 331.815 193.884L313.43 225.727C313.215 226.1 313.215 226.559 313.43 226.931L331.815 258.775C332.031 259.147 332.428 259.377 332.858 259.377L369.628 259.377C370.058 259.377 370.456 259.147 370.671 258.775L389.056 226.931C389.271 226.559 389.271 226.1 389.056 225.727L370.671 193.884Z" stroke="white" stroke-width="2.94272"/>
<path d="M301.784 157.1C301.569 156.727 301.172 156.498 300.742 156.498L263.972 156.498C263.541 156.498 263.144 156.727 262.929 157.1L244.544 188.944C244.329 189.316 244.329 189.775 244.544 190.147L262.929 221.991C263.144 222.364 263.541 222.593 263.972 222.593L300.742 222.593C301.172 222.593 301.569 222.364 301.784 221.991L320.169 190.147C320.384 189.775 320.384 189.316 320.169 188.944L301.784 157.1Z" stroke="white" stroke-width="2.94272"/>
<path d="M370.671 193.884C370.456 193.511 370.058 193.282 369.628 193.282L332.858 193.282C332.428 193.282 332.031 193.511 331.815 193.884L313.43 225.727C313.215 226.1 313.215 226.559 313.43 226.931L331.815 258.775C332.031 259.147 332.428 259.377 332.858 259.377L369.628 259.377C370.058 259.377 370.456 259.147 370.671 258.775L389.056 226.931C389.271 226.559 389.271 226.1 389.056 225.727L370.671 193.884Z" stroke="white" stroke-width="2.94272"/>
<path d="M436.882 234.012C436.667 233.639 436.27 233.41 435.84 233.41L399.069 233.41C398.639 233.41 398.242 233.639 398.027 234.012L379.642 265.856C379.427 266.228 379.427 266.687 379.642 267.059L398.027 298.903C398.242 299.276 398.639 299.505 399.069 299.505L435.84 299.505C436.27 299.505 436.667 299.276 436.882 298.903L455.267 267.059C455.482 266.687 455.482 266.228 455.267 265.856L436.882 234.012Z" stroke="white" stroke-width="2.94272"/>
<path d="M367.996 274.14C367.781 273.767 367.383 273.538 366.953 273.538L330.183 273.538C329.753 273.538 329.356 273.767 329.141 274.14L310.756 305.984C310.541 306.356 310.541 306.815 310.756 307.187L329.141 339.031C329.356 339.404 329.753 339.633 330.183 339.633L366.953 339.633C367.383 339.633 367.781 339.404 367.996 339.031L386.381 307.187C386.596 306.815 386.596 306.356 386.381 305.984L367.996 274.14Z" stroke="white" stroke-width="2.94272"/>
<path d="M301.784 310.924C301.569 310.551 301.172 310.322 300.742 310.322L263.972 310.322C263.541 310.322 263.144 310.551 262.929 310.924L244.544 342.767C244.329 343.14 244.329 343.599 244.544 343.971L262.929 375.815C263.144 376.187 263.541 376.417 263.972 376.417L300.742 376.417C301.172 376.417 301.569 376.187 301.784 375.815L320.169 343.971C320.384 343.599 320.384 343.14 320.169 342.767L301.784 310.924Z" stroke="white" stroke-width="2.94272"/>
<path d="M232.898 274.14C232.683 273.767 232.286 273.538 231.856 273.538L195.086 273.538C194.655 273.538 194.258 273.767 194.043 274.14L175.658 305.984C175.443 306.356 175.443 306.815 175.658 307.187L194.043 339.031C194.258 339.404 194.655 339.633 195.086 339.633L231.856 339.633C232.286 339.633 232.683 339.404 232.898 339.031L251.283 307.187C251.498 306.815 251.498 306.356 251.283 305.984L232.898 274.14Z" stroke="white" stroke-width="2.94272"/>
<path d="M166.687 234.012C166.472 233.639 166.075 233.41 165.644 233.41L128.874 233.41C128.444 233.41 128.047 233.639 127.832 234.012L109.447 265.856C109.232 266.228 109.232 266.687 109.447 267.059L127.832 298.903C128.047 299.276 128.444 299.505 128.874 299.505L165.644 299.505C166.075 299.505 166.472 299.276 166.687 298.903L185.072 267.059C185.287 266.687 185.287 266.228 185.072 265.856L166.687 234.012Z" stroke="white" stroke-width="2.94272"/>
<path d="M166.687 157.1C166.472 156.727 166.074 156.498 165.644 156.498L128.874 156.498C128.444 156.498 128.047 156.727 127.832 157.1L109.447 188.944C109.232 189.316 109.232 189.775 109.447 190.147L127.832 221.991C128.047 222.364 128.444 222.593 128.874 222.593L165.644 222.593C166.074 222.593 166.472 222.364 166.687 221.991L185.072 190.147C185.287 189.775 185.287 189.316 185.072 188.944L166.687 157.1Z" stroke="white" stroke-width="2.94272"/>
<path d="M235.573 193.884C235.358 193.511 234.961 193.282 234.53 193.282L197.76 193.282C197.33 193.282 196.933 193.511 196.718 193.884L178.333 225.727C178.118 226.1 178.118 226.559 178.333 226.931L196.718 258.775C196.933 259.147 197.33 259.377 197.76 259.377L234.53 259.377C234.961 259.377 235.358 259.147 235.573 258.775L253.958 226.931C254.173 226.559 254.173 226.1 253.958 225.727L235.573 193.884Z" stroke="white" stroke-width="2.94272"/>
<path d="M299.109 234.012C298.894 233.639 298.497 233.41 298.067 233.41L261.297 233.41C260.866 233.41 260.469 233.639 260.254 234.012L241.869 265.856C241.654 266.228 241.654 266.687 241.869 267.059L260.254 298.903C260.469 299.276 260.866 299.505 261.297 299.505L298.067 299.505C298.497 299.505 298.894 299.276 299.109 298.903L317.494 267.059C317.709 266.687 317.709 266.228 317.494 265.856L299.109 234.012Z" stroke="white" stroke-width="2.94272"/>
<path d="M232.898 116.972C232.683 116.599 232.286 116.37 231.856 116.37L195.086 116.37C194.655 116.37 194.258 116.599 194.043 116.972L175.658 148.816C175.443 149.188 175.443 149.647 175.658 150.019L194.043 181.863C194.258 182.236 194.655 182.465 195.086 182.465L231.856 182.465C232.286 182.465 232.683 182.236 232.898 181.863L251.283 150.019C251.498 149.647 251.498 149.188 251.283 148.816L232.898 116.972Z" stroke="white" stroke-width="2.94272"/>
</g>
<g filter="url(#filter1_d_1_893)">
<path d="M141.481 108.715L180.089 47.186L261.865 47.1856" stroke="white" stroke-width="1.3376"/>
<path d="M164.038 74.5715L180.089 47.1883L218.211 47.1883" stroke="white" stroke-width="2.6752"/>
<path d="M146.649 72.899L170.807 31.4981L229.915 31.4981" stroke="white" stroke-width="2.6752"/>
<line x1="155.482" y1="7.99733" x2="170.195" y2="32.0741" stroke="white" stroke-width="2.6752"/>
<ellipse cx="154.073" cy="5.08288" rx="5.08288" ry="5.08288" fill="white"/>
<ellipse cx="259.717" cy="47.1909" rx="3.04972" ry="3.04977" fill="#06DAFF"/>
<ellipse cx="144.014" cy="108.72" rx="3.04972" ry="3.04977" fill="#06DAFF"/>
</g>
<g filter="url(#filter2_d_1_893)">
<path d="M426.774 108.715L388.166 47.186L306.39 47.1856" stroke="white" stroke-width="1.3376"/>
<path d="M404.218 74.571L388.167 47.1879L350.045 47.1878" stroke="white" stroke-width="2.6752"/>
<path d="M421.606 72.899L397.448 31.4981L338.341 31.4981" stroke="white" stroke-width="2.6752"/>
<line y1="-1.3376" x2="28.2167" y2="-1.3376" transform="matrix(-0.52145 0.853282 0.853282 0.52145 413.915 8.69482)" stroke="white" stroke-width="2.6752"/>
<ellipse cx="5.08288" cy="5.08288" rx="5.08288" ry="5.08288" transform="matrix(-1 0 0 1 419.266 0)" fill="white"/>
<ellipse cx="3.04972" cy="3.04977" rx="3.04972" ry="3.04977" transform="matrix(-1 0 0 1 311.589 44.1406)" fill="#06DAFF"/>
<ellipse cx="3.04972" cy="3.04977" rx="3.04972" ry="3.04977" transform="matrix(-1 0 0 1 427.291 105.67)" fill="#06DAFF"/>
</g>
<g filter="url(#filter3_d_1_893)">
<path d="M426.774 342.805L388.166 404.334L306.39 404.334" stroke="white" stroke-width="1.3376"/>
<path d="M404.218 376.949L388.167 404.332L350.045 404.332" stroke="white" stroke-width="2.6752"/>
<path d="M421.606 378.621L397.448 420.022L338.341 420.022" stroke="white" stroke-width="2.6752"/>
<line x1="412.774" y1="443.523" x2="398.06" y2="419.446" stroke="white" stroke-width="2.6752"/>
<ellipse cx="414.183" cy="446.437" rx="5.08288" ry="5.08288" transform="rotate(-180 414.183 446.437)" fill="white"/>
<ellipse cx="308.539" cy="404.33" rx="3.04972" ry="3.04977" transform="rotate(-180 308.539 404.33)" fill="#06DAFF"/>
<ellipse cx="424.241" cy="342.8" rx="3.04972" ry="3.04977" transform="rotate(-180 424.241 342.8)" fill="#06DAFF"/>
</g>
<g filter="url(#filter4_d_1_893)">
<path d="M138.507 338.124L177.115 399.653L258.891 399.653" stroke="white" stroke-width="1.3376"/>
<path d="M161.064 372.267L177.115 399.651L215.236 399.651" stroke="white" stroke-width="2.6752"/>
<path d="M143.675 373.94L167.833 415.341L226.941 415.341" stroke="white" stroke-width="2.6752"/>
<line y1="-1.3376" x2="28.2167" y2="-1.3376" transform="matrix(0.52145 -0.853282 -0.853282 -0.52145 151.366 438.145)" stroke="white" stroke-width="2.6752"/>
<ellipse cx="5.08288" cy="5.08288" rx="5.08288" ry="5.08288" transform="matrix(1 0 0 -1 146.016 446.839)" fill="white"/>
<ellipse cx="3.04972" cy="3.04977" rx="3.04972" ry="3.04977" transform="matrix(1 0 0 -1 253.693 402.698)" fill="#06DAFF"/>
<ellipse cx="3.04972" cy="3.04977" rx="3.04972" ry="3.04977" transform="matrix(1 0 0 -1 137.99 341.168)" fill="#06DAFF"/>
</g>
<g filter="url(#filter5_d_1_893)">
<path d="M120.334 147.805L75.9441 225.86L115.318 295.61L116.832 296.68" stroke="#06DAFF" stroke-width="1.3376"/>
<path d="M91.5324 199.27L75.8434 226.862L94.9042 259.876" stroke="white" stroke-width="2.6752"/>
<path d="M81.3899 185.047L57.6147 226.669L87.1686 277.858" stroke="white" stroke-width="2.6752"/>
<line y1="-1.3376" x2="28.2167" y2="-1.3376" transform="matrix(0.999689 0.0249481 0.0249481 -0.999689 29.6326 223.81)" stroke="white" stroke-width="2.6752"/>
<ellipse cx="5.08288" cy="5.08288" rx="5.08288" ry="5.08288" transform="matrix(0.5 0.866026 0.866025 -0.5 19.4277 223.523)" fill="white"/>
<ellipse cx="3.04972" cy="3.04977" rx="3.04972" ry="3.04977" transform="matrix(0.5 0.866026 0.866025 -0.5 112.206 297.322)" fill="#06DAFF"/>
<ellipse cx="3.04972" cy="3.04977" rx="3.04972" ry="3.04977" transform="matrix(0.5 0.866026 0.866025 -0.5 116.219 148.179)" fill="#06DAFF"/>
</g>
<g filter="url(#filter6_d_1_893)">
<path d="M446.538 147.291L490.928 225.346L451.554 295.095L450.04 296.166" stroke="#06DAFF" stroke-width="1.3376"/>
<path d="M475.34 198.756L491.029 226.348L471.968 259.362" stroke="white" stroke-width="2.6752"/>
<path d="M485.482 184.532L509.257 226.154L479.703 277.343" stroke="white" stroke-width="2.6752"/>
<line x1="537.273" y1="224.633" x2="509.065" y2="225.337" stroke="white" stroke-width="2.6752"/>
<ellipse cx="540.501" cy="224.87" rx="5.08288" ry="5.08288" transform="rotate(120 540.501 224.87)" fill="white"/>
<ellipse cx="450.5" cy="297.923" rx="3.04972" ry="3.04977" transform="rotate(120 450.5 297.923)" fill="#06DAFF"/>
<ellipse cx="446.487" cy="148.781" rx="3.04972" ry="3.04977" transform="rotate(120 446.487 148.781)" fill="#06DAFF"/>
</g>
<defs>
<filter id="filter0_d_1_893" x="101.544" y="68.5" width="361.626" height="315.658" filterUnits="userSpaceOnUse" color-interpolation-filters="sRGB">
<feFlood flood-opacity="0" result="BackgroundImageFix"/>
<feColorMatrix in="SourceAlpha" type="matrix" values="0 0 0 0 0 0 0 0 0 0 0 0 0 0 0 0 0 0 127 0" result="hardAlpha"/>
<feOffset/>
<feGaussianBlur stdDeviation="3.135"/>
<feComposite in2="hardAlpha" operator="out"/>
<feColorMatrix type="matrix" values="0 0 0 0 1 0 0 0 0 1 0 0 0 0 1 0 0 0 0.81 0"/>
<feBlend mode="normal" in2="BackgroundImageFix" result="effect1_dropShadow_1_893"/>
<feBlend mode="normal" in="SourceGraphic" in2="effect1_dropShadow_1_893" result="shape"/>
</filter>
<filter id="filter1_d_1_893" x="136.735" y="0" width="130.212" height="120.13" filterUnits="userSpaceOnUse" color-interpolation-filters="sRGB">
<feFlood flood-opacity="0" result="BackgroundImageFix"/>
<feColorMatrix in="SourceAlpha" type="matrix" values="0 0 0 0 0 0 0 0 0 0 0 0 0 0 0 0 0 0 127 0" result="hardAlpha"/>
<feOffset dy="4.18"/>
<feGaussianBlur stdDeviation="2.09"/>
<feComposite in2="hardAlpha" operator="out"/>
<feColorMatrix type="matrix" values="0 0 0 0 1 0 0 0 0 1 0 0 0 0 1 0 0 0 1 0"/>
<feBlend mode="normal" in2="BackgroundImageFix" result="effect1_dropShadow_1_893"/>
<feBlend mode="normal" in="SourceGraphic" in2="effect1_dropShadow_1_893" result="shape"/>
</filter>
<filter id="filter2_d_1_893" x="301.31" y="0" width="130.212" height="120.13" filterUnits="userSpaceOnUse" color-interpolation-filters="sRGB">
<feFlood flood-opacity="0" result="BackgroundImageFix"/>
<feColorMatrix in="SourceAlpha" type="matrix" values="0 0 0 0 0 0 0 0 0 0 0 0 0 0 0 0 0 0 127 0" result="hardAlpha"/>
<feOffset dy="4.18"/>
<feGaussianBlur stdDeviation="2.09"/>
<feComposite in2="hardAlpha" operator="out"/>
<feColorMatrix type="matrix" values="0 0 0 0 1 0 0 0 0 1 0 0 0 0 1 0 0 0 1 0"/>
<feBlend mode="normal" in2="BackgroundImageFix" result="effect1_dropShadow_1_893"/>
<feBlend mode="normal" in="SourceGraphic" in2="effect1_dropShadow_1_893" result="shape"/>
</filter>
<filter id="filter3_d_1_893" x="301.309" y="339.75" width="130.212" height="120.13" filterUnits="userSpaceOnUse" color-interpolation-filters="sRGB">
<feFlood flood-opacity="0" result="BackgroundImageFix"/>
<feColorMatrix in="SourceAlpha" type="matrix" values="0 0 0 0 0 0 0 0 0 0 0 0 0 0 0 0 0 0 127 0" result="hardAlpha"/>
<feOffset dy="4.18"/>
<feGaussianBlur stdDeviation="2.09"/>
<feComposite in2="hardAlpha" operator="out"/>
<feColorMatrix type="matrix" values="0 0 0 0 1 0 0 0 0 1 0 0 0 0 1 0 0 0 1 0"/>
<feBlend mode="normal" in2="BackgroundImageFix" result="effect1_dropShadow_1_893"/>
<feBlend mode="normal" in="SourceGraphic" in2="effect1_dropShadow_1_893" result="shape"/>
</filter>
<filter id="filter4_d_1_893" x="133.76" y="335.069" width="130.212" height="120.13" filterUnits="userSpaceOnUse" color-interpolation-filters="sRGB">
<feFlood flood-opacity="0" result="BackgroundImageFix"/>
<feColorMatrix in="SourceAlpha" type="matrix" values="0 0 0 0 0 0 0 0 0 0 0 0 0 0 0 0 0 0 127 0" result="hardAlpha"/>
<feOffset dy="4.18"/>
<feGaussianBlur stdDeviation="2.09"/>
<feComposite in2="hardAlpha" operator="out"/>
<feColorMatrix type="matrix" values="0 0 0 0 1 0 0 0 0 1 0 0 0 0 1 0 0 0 1 0"/>
<feBlend mode="normal" in2="BackgroundImageFix" result="effect1_dropShadow_1_893"/>
<feBlend mode="normal" in="SourceGraphic" in2="effect1_dropShadow_1_893" result="shape"/>
</filter>
<filter id="filter5_d_1_893" x="17.1074" y="146.245" width="110.508" height="163.603" filterUnits="userSpaceOnUse" color-interpolation-filters="sRGB">
<feFlood flood-opacity="0" result="BackgroundImageFix"/>
<feColorMatrix in="SourceAlpha" type="matrix" values="0 0 0 0 0 0 0 0 0 0 0 0 0 0 0 0 0 0 127 0" result="hardAlpha"/>
<feOffset dy="4.18"/>
<feGaussianBlur stdDeviation="2.09"/>
<feComposite in2="hardAlpha" operator="out"/>
<feColorMatrix type="matrix" values="0 0 0 0 1 0 0 0 0 1 0 0 0 0 1 0 0 0 1 0"/>
<feBlend mode="normal" in2="BackgroundImageFix" result="effect1_dropShadow_1_893"/>
<feBlend mode="normal" in="SourceGraphic" in2="effect1_dropShadow_1_893" result="shape"/>
</filter>
<filter id="filter6_d_1_893" x="439.257" y="145.73" width="110.508" height="163.603" filterUnits="userSpaceOnUse" color-interpolation-filters="sRGB">
<feFlood flood-opacity="0" result="BackgroundImageFix"/>
<feColorMatrix in="SourceAlpha" type="matrix" values="0 0 0 0 0 0 0 0 0 0 0 0 0 0 0 0 0 0 127 0" result="hardAlpha"/>
<feOffset dy="4.18"/>
<feGaussianBlur stdDeviation="2.09"/>
<feComposite in2="hardAlpha" operator="out"/>
<feColorMatrix type="matrix" values="0 0 0 0 1 0 0 0 0 1 0 0 0 0 1 0 0 0 1 0"/>
<feBlend mode="normal" in2="BackgroundImageFix" result="effect1_dropShadow_1_893"/>
<feBlend mode="normal" in="SourceGraphic" in2="effect1_dropShadow_1_893" result="shape"/>
</filter>
</defs>
</svg>
