<svg width="152" height="18" viewBox="0 0 152 18" fill="none" xmlns="http://www.w3.org/2000/svg">
<path d="M12.4202 17.4334H0V0H12.061C14.6867 0 15.5723 0.554382 16.3743 1.37724C17.0926 2.10944 17.4308 3.15545 17.4308 4.33046C17.4308 5.44271 17.1449 6.60726 16.5103 7.20697C16.05 7.62886 15.3422 8.12745 14.6413 8.23902C14.6867 8.23205 14.854 8.21113 15.1051 8.25646C15.8164 8.38198 16.6219 8.95728 17.1344 9.55002C17.7865 10.3066 18.1282 11.4607 18.1282 12.5695C18.1282 13.8142 17.8109 14.9683 17.1344 15.7912C16.2871 16.8337 15.0981 17.4334 12.4202 17.4334ZM13.672 3.44135C13.2291 3.01946 12.6189 3.01946 11.6008 3.01946H3.19396V7.20697H11.9007C12.9293 7.20697 13.3163 7.08493 13.7417 6.66304C14.1218 6.3074 14.331 5.68677 14.331 5.02082C14.331 4.42111 14.1009 3.84232 13.6789 3.44484L13.672 3.44135ZM15.0981 12.301C15.0981 11.656 14.9272 11.1016 14.4844 10.7006C14.0416 10.2997 13.3128 10.2125 11.8693 10.2125H3.19396V14.4104H12.1622C13.6266 14.4104 14.1706 14.278 14.5925 13.8317C14.9726 13.4098 15.1016 12.9007 15.1016 12.301H15.0981Z" fill="#FFCF01"/>
<path d="M22.7363 17.4334V0H38.4803V3.01946H25.9411V7.19302H35.2755V10.2125H25.9411V14.4104H38.4803V17.4299H22.7363V17.4334Z" fill="#FFCF01"/>
<path d="M43.0884 17.4334V0H58.8324V3.02295H46.2932V7.19651H55.6276V10.216H46.2932V14.4139H58.8324V17.4334H43.0884Z" fill="#FFCF01"/>
<path d="M74.7854 7.36988C74.112 7.28443 72.4165 7.04856 71.5585 6.93918C68.1675 6.54265 67.2035 6.12562 66.9369 5.18216C66.8993 5.05227 66.8822 4.91212 66.8822 4.76171C66.8822 3.55505 67.9829 2.84404 71.9004 2.84404C75.2059 2.84404 76.2519 3.40464 76.8433 4.41646C76.9766 4.64207 77.0792 4.92579 77.1373 5.18216H80.5317C80.4462 4.64891 80.3027 4.05412 80.0258 3.51403C78.884 1.22717 77.0655 0 72.085 0C66.1678 0 63.7749 2.15354 63.7749 4.8711C63.7749 4.97706 63.7784 5.07961 63.7852 5.18216C63.9219 7.74248 65.4534 9.15766 69.969 9.67725C70.7415 9.78321 72.2935 9.95755 73.0284 10.0635C76.4365 10.4942 77.4654 10.9865 77.5509 12.2444C77.5543 12.3059 77.5577 12.3675 77.5577 12.4324C77.5577 13.7485 76.7373 14.5894 72.7789 14.5894C69.6374 14.5894 68.065 14.1587 67.3095 13.2528C67.0736 12.9759 66.9267 12.6136 66.8378 12.2444H63.4399C63.5562 13.2049 64.0416 14.0903 64.5748 14.8047C65.8601 16.4626 67.7983 17.4334 72.9635 17.4334C78.5251 17.4334 80.8462 15.4713 80.8735 12.2444V12.1965C80.8735 9.39694 79.0481 7.93049 74.7854 7.36988Z" fill="white"/>
<path d="M88.5935 0H85.4819V12.1635C85.4819 16.7806 90.761 17.4273 94.1792 17.433C97.7028 17.439 102.839 16.7806 102.839 12.1635V0H99.765V11.9807C99.765 14.3614 95.8865 14.4387 94.1792 14.4382C92.4786 14.4377 88.5935 14.3614 88.5935 11.9807V0Z" fill="white"/>
<rect x="107.447" width="3.2256" height="17.4334" fill="white"/>
<path d="M115.28 0V3.07196H121.578V17.4334H124.803V3.07196H131.024V0H115.28Z" fill="white"/>
<path d="M135.632 17.4334V0H151.376V3.02295H138.837V7.19651H148.172V10.216H138.837V14.4139H151.376V17.4334H135.632Z" fill="white"/>
</svg>
