<svg width="40" height="40" viewBox="0 0 40 40" fill="none" xmlns="http://www.w3.org/2000/svg">
<path d="M28.3337 14.9111C27.7203 15.1778 27.062 15.3611 26.3703 15.4411C27.077 15.0244 27.617 14.3644 27.8737 13.5794C27.2003 13.9719 26.4655 14.248 25.7003 14.3961C25.3785 14.0587 24.9912 13.7905 24.5623 13.6076C24.1333 13.4248 23.6716 13.3313 23.2053 13.3328C21.317 13.3328 19.787 14.8411 19.787 16.6994C19.787 16.9628 19.817 17.2194 19.8753 17.4661C18.5209 17.4018 17.1947 17.0559 15.9814 16.4504C14.7681 15.8449 13.6944 14.9931 12.8287 13.9494C12.5246 14.4613 12.3645 15.0458 12.3653 15.6411C12.3653 16.8078 12.9703 17.8411 13.887 18.4428C13.3444 18.4258 12.8134 18.2813 12.337 18.0211V18.0628C12.3421 18.8452 12.6183 19.6017 13.1185 20.2034C13.6187 20.8051 14.312 21.2148 15.0803 21.3628C14.5759 21.4962 14.0481 21.5155 13.5353 21.4194C13.7589 22.0926 14.1864 22.6794 14.7587 23.0984C15.3309 23.5174 16.0195 23.7479 16.7287 23.7578C15.5119 24.6954 14.0181 25.2019 12.482 25.1978C12.207 25.1978 11.9353 25.1811 11.667 25.1511C13.2344 26.1433 15.0519 26.6687 16.907 26.6661C23.197 26.6661 26.6353 21.5361 26.6353 17.0861L26.6237 16.6494C27.2941 16.1782 27.8735 15.5893 28.3337 14.9111Z" fill="white"/>
<path d="M10.0002 6.04122C8.95035 6.04122 7.94353 6.45826 7.2012 7.20059L7.64314 7.64253L7.2012 7.20059C6.45887 7.94292 6.04183 8.94974 6.04183 9.99955V29.9996C6.04183 31.0494 6.45887 32.0562 7.2012 32.7985C7.94353 33.5408 8.95035 33.9579 10.0002 33.9579H30.0002C31.05 33.9579 32.0568 33.5408 32.7991 32.7985C33.5415 32.0562 33.9585 31.0494 33.9585 29.9996V9.99955C33.9585 8.94974 33.5415 7.94292 32.7991 7.20059C32.0568 6.45826 31.05 6.04122 30.0002 6.04122H10.0002ZM10.0002 3.95789H30.0002C31.6025 3.95789 33.1392 4.59442 34.2723 5.72745C35.4053 6.86048 36.0418 8.3972 36.0418 9.99955V29.9996C36.0418 31.6019 35.4053 33.1386 34.2723 34.2717C33.1392 35.4047 31.6025 36.0412 30.0002 36.0412H10.0002C8.39781 36.0412 6.86109 35.4047 5.72806 34.2717C4.59503 33.1386 3.9585 31.6019 3.9585 29.9996V9.99955C3.9585 8.3972 4.59503 6.86048 5.72806 5.72745C6.86109 4.59442 8.39781 3.95789 10.0002 3.95789Z" fill="white" stroke="#091C37" stroke-width="1.25"/>
</svg>
