<svg width="40" height="40" viewBox="0 0 40 40" fill="none" xmlns="http://www.w3.org/2000/svg">
<path d="M28.3337 21.8826V28.0442H24.762V22.2942C24.762 20.8509 24.2453 19.8659 22.952 19.8659C21.9653 19.8659 21.377 20.5292 21.1187 21.1726C21.0253 21.4026 21.0003 21.7226 21.0003 22.0426V28.0442H17.427C17.427 28.0442 17.4753 18.3076 17.427 17.2992H21.0003V18.8209L20.977 18.8559H21.0003V18.8209C21.4753 18.0876 22.322 17.0459 24.2203 17.0459C26.5703 17.0459 28.3337 18.5826 28.3337 21.8826ZM13.6887 12.1176C12.467 12.1176 11.667 12.9209 11.667 13.9742C11.667 15.0076 12.4437 15.8326 13.642 15.8326H13.6653C14.912 15.8326 15.687 15.0059 15.687 13.9742C15.6637 12.9209 14.912 12.1176 13.6887 12.1176ZM11.8787 28.0442H15.452V17.2992H11.8787V28.0442Z" fill="white"/>
<path d="M10.0002 6.04122C8.95035 6.04122 7.94353 6.45826 7.2012 7.20059C6.45887 7.94292 6.04183 8.94974 6.04183 9.99955V29.9996C6.04183 31.0494 6.45887 32.0562 7.2012 32.7985C7.94353 33.5408 8.95035 33.9579 10.0002 33.9579H30.0002C31.05 33.9579 32.0568 33.5408 32.7991 32.7985C33.5415 32.0562 33.9585 31.0494 33.9585 29.9996V9.99955C33.9585 8.94974 33.5415 7.94292 32.7991 7.20059C32.0568 6.45826 31.05 6.04122 30.0002 6.04122H10.0002ZM10.0002 3.95789H30.0002C31.6025 3.95789 33.1392 4.59442 34.2723 5.72745C35.4053 6.86048 36.0418 8.3972 36.0418 9.99955V29.9996C36.0418 31.6019 35.4053 33.1386 34.2723 34.2717C33.1392 35.4047 31.6025 36.0412 30.0002 36.0412H10.0002C8.39781 36.0412 6.86109 35.4047 5.72806 34.2717C4.59503 33.1386 3.9585 31.6019 3.9585 29.9996V9.99955C3.9585 8.3972 4.59503 6.86048 5.72806 5.72745C6.86109 4.59442 8.39781 3.95789 10.0002 3.95789Z" fill="white" stroke="#091C37" stroke-width="1.25"/>
</svg>
