<svg width="40" height="40" viewBox="0 0 40 40" fill="none" xmlns="http://www.w3.org/2000/svg">
<path d="M32.2918 36.4667H7.50016C6.39509 36.4667 5.33529 35.9169 4.55388 34.9383C3.77248 33.9597 3.3335 32.6324 3.3335 31.2485V8.55151C3.3335 7.16757 3.77248 5.8403 4.55388 4.8617C5.33529 3.88311 6.39509 3.33334 7.50016 3.33334H32.2918C33.3969 3.33334 34.4567 3.88311 35.2381 4.8617C36.0195 5.8403 36.4585 7.16757 36.4585 8.55151V31.2485C36.4585 32.6324 36.0195 33.9597 35.2381 34.9383C34.4567 35.9169 33.3969 36.4667 32.2918 36.4667ZM7.50016 5.42061C6.83712 5.42061 6.20124 5.75047 5.7324 6.33763C5.26355 6.92479 5.00016 7.72114 5.00016 8.55151V31.2485C5.00016 32.0789 5.26355 32.8752 5.7324 33.4624C6.20124 34.0495 6.83712 34.3794 7.50016 34.3794H32.2918C32.9549 34.3794 33.5908 34.0495 34.0596 33.4624C34.5284 32.8752 34.7918 32.0789 34.7918 31.2485V8.55151C34.7918 7.72114 34.5284 6.92479 34.0596 6.33763C33.5908 5.75047 32.9549 5.42061 32.2918 5.42061H7.50016Z" fill="white" stroke="#091C37"/>
<path d="M24.3033 18.1613L17.69 13.633C17.4317 13.4566 17.1302 13.3539 16.8179 13.3361C16.5057 13.3183 16.1945 13.386 15.9178 13.5319C15.6411 13.6777 15.4095 13.8963 15.2477 14.164C15.086 14.4318 15.0004 14.7385 15 15.0513V24.108C15.0004 24.4207 15.086 24.7275 15.2477 24.9952C15.4095 25.2629 15.6411 25.4815 15.9178 25.6274C16.1945 25.7732 16.5057 25.8409 16.8179 25.8231C17.1302 25.8053 17.4317 25.7027 17.69 25.5263L24.31 20.998C24.5403 20.8397 24.7285 20.6276 24.8583 20.3801C24.9881 20.1327 25.0556 19.8573 25.055 19.5779C25.0543 19.2984 24.9855 19.0234 24.8545 18.7765C24.7236 18.5297 24.5344 18.3185 24.3033 18.1613Z" fill="white"/>
</svg>
